<?xml version="1.0" encoding="iso-8859-1"?>
<!-- Generator: Adobe Illustrator 24.1.0, SVG Export Plug-In . SVG Version: 6.00 Build 0)  -->
<svg version="1.1" id="Capa_1" xmlns="http://www.w3.org/2000/svg" xmlns:xlink="http://www.w3.org/1999/xlink" x="0px" y="0px"
	 viewBox="0 0 512 512" style="enable-background:new 0 0 512 512;" xml:space="preserve">
<g>
	<path style="fill:#F2F2F6;" d="M396.387,90.839H115.613c-9.122,0-16.516,7.395-16.516,16.516v306.312h313.806V107.355
		C412.903,98.233,405.509,90.839,396.387,90.839z"/>
	<polygon style="fill:#E1E1E6;" points="106,404.645 115.613,421.161 396.387,421.161 406,404.645 	"/>
	<path style="fill:#E5646E;" d="M350.698,261.326L334,250.194c-2.297-1.532-3.677-4.11-3.677-6.871v-23.326
		c0-2.428-2.556-4.009-4.728-2.922l-44.82,22.41l14.815-51.85c0.722-2.527-1.682-4.828-4.175-3.997l-12.279,4.093
		c-3.822,1.274-8.005-0.396-9.899-3.951l-10.352-19.424c-1.23-2.307-4.537-2.307-5.767,0l-10.352,19.424
		c-1.894,3.555-6.078,5.224-9.899,3.951l-12.279-4.093c-2.492-0.831-4.897,1.471-4.175,3.997l14.815,51.85l-44.82-22.41
		c-2.172-1.086-4.728,0.494-4.728,2.922v23.326c0,2.761-1.38,5.34-3.677,6.871l-16.698,11.132c-2.021,1.347-1.917,4.35,0.192,5.555
		l53.216,30.409l-4.635,13.905c-1.782,5.347,2.198,10.869,7.835,10.869h29.833v41.29c0,4.56,3.694,8.258,8.258,8.258
		s8.258-3.698,8.258-8.258v-41.29h29.833c5.637,0,9.617-5.522,7.835-10.869l-4.635-13.905l53.216-30.409
		C352.615,265.676,352.719,262.673,350.698,261.326z"/>
	<path style="fill:#E5646E;" d="M115.613,90.839H16.516l-8.032,16.516v287.462c0,9.121,7.395,16.516,16.516,16.516h80l10.613-6.689
		V90.839z"/>
	<path style="fill:#DB4655;" d="M0,107.355v297.29c0,9.121,7.395,16.516,16.516,16.516h99.097v-16.516H66.065
		c-27.365,0-49.548-22.183-49.548-49.548V90.839C7.395,90.839,0,98.233,0,107.355z"/>
	<path style="fill:#E5646E;" d="M413.667,414.667h81.817L512,404.645v-297.29c0-9.121-7.395-16.516-16.516-16.516h-99.097v313.807
		L413.667,414.667z"/>
	<path style="fill:#DB4655;" d="M512,404.645H396.387v16.516h99.097C504.605,421.161,512,413.767,512,404.645z"/>
</g>
<g>
</g>
<g>
</g>
<g>
</g>
<g>
</g>
<g>
</g>
<g>
</g>
<g>
</g>
<g>
</g>
<g>
</g>
<g>
</g>
<g>
</g>
<g>
</g>
<g>
</g>
<g>
</g>
<g>
</g>
</svg>
